<svg id="Capa_1" enable-background="new 0 0 512 512" height="512" viewBox="0 0 512 512" width="512" xmlns="http://www.w3.org/2000/svg"><g><g><g><g><g><g><path d="m259.257.083c-1.08-.052-2.165-.083-3.257-.083-36.81 0-66.757 29.977-66.757 66.823v37.326l30 13.094v-50.42c0-20.287 16.489-36.793 36.757-36.793 1.098 0 2.183.058 3.257.152z" fill="#b98be7"/></g></g></g></g><g><g><g><g><path d="m124.574 213.831h-30v-66.322c0-13.304-10.813-24.127-24.104-24.127-29.833 0-54.104-24.294-54.104-54.157v-68.721h30v68.72c0 13.304 10.813 24.127 24.104 24.127 29.833 0 54.104 24.294 54.104 54.157z" fill="#8ef1cf"/></g></g></g></g></g><g><g><g><g><path d="m495.633.504h-30v66.322c0 13.304-10.813 24.127-24.104 24.127-29.833 0-54.104 24.294-54.104 54.157v68.72h30v-68.72c0-13.304 10.813-24.127 24.104-24.127 29.833 0 54.104-24.294 54.104-54.157z" fill="#5ed8d3"/></g></g></g></g><g><g><g><g><path d="m256.614.016v30.03c19.984.331 36.142 16.696 36.142 36.777v50.42l30.096-13.094-.096-37.326c.001-36.64-29.615-66.474-66.142-66.807z" fill="#ad77e3"/></g></g></g></g><g><g><g><g><path d="m417.426 512h-322.852v-313.184h15c43.877 0 79.573-35.732 79.573-79.653v-15.015h133.705v15.015c0 43.92 35.696 79.653 79.573 79.653h15v313.184z" fill="#d599ed"/></g></g></g></g><g><g><g><g><path d="m402.426 198.816c-43.877 0-79.573-35.733-79.573-79.653v-15.015h-66.238v407.852h160.811v-313.184z" fill="#b98be7"/></g></g></g></g><g><g><g><g><path d="m256 431.642c-39.739 0-72.069-32.362-72.069-72.14v-72.14h144.139v72.14c-.001 39.778-32.331 72.14-72.07 72.14z" fill="#b98be7"/></g></g></g></g><g><g><g><g><path d="m256.614 287.361v144.265c39.456-.333 71.455-32.552 71.455-72.125v-72.14z" fill="#ad77e3"/></g></g></g></g></g></svg>