<svg height="512pt" viewBox="-1 0 512 512" width="512pt" xmlns="http://www.w3.org/2000/svg"><path d="m66.007812 260.902344c-19.238281.738281-34.660156 16.621094-34.660156 36.035156v151.15625c0 8.652344-7.011718 15.671875-15.675781 15.671875-8.648437 0-15.671875-7.019531-15.671875-15.671875v-151.15625c0-36.695312 29.488281-66.640625 66.007812-67.394531h377.863282c36.519531.753906 66.007812 30.699219 66.007812 67.394531v151.15625c0 8.652344-7.023437 15.671875-15.671875 15.671875-8.664062 0-15.675781-7.019531-15.675781-15.671875v-151.15625c0-19.414062-15.421875-35.296875-34.660156-36.035156" fill="#575f64"/><path d="m437.246094 229.542969c-44.84375 0-81.207032-36.363281-81.207032-81.210938v-47.226562c0-27.921875-11.316406-53.195313-29.613281-71.492188s-43.570312-29.613281-71.492187-29.613281c-55.839844 0-101.105469 45.265625-101.105469 101.105469v47.226562c0 44.847657-36.359375 81.210938-81.207031 81.210938h-6.613282v282.457031h377.863282v-282.457031zm-112.554688-57.1875h-139.515625v-71.25c0-38.464844 31.296875-69.757813 69.757813-69.757813 38.464844 0 69.757812 31.292969 69.757812 69.757813zm0 0" fill="#bda4e0"/><path d="m327.242188 269.296875c4.328124 0 7.835937-3.507813 7.835937-7.835937 0-4.328126-3.507813-7.839844-7.835937-7.839844h-30.289063v-9.652344h30.289063c4.328124 0 7.835937-3.507812 7.835937-7.835938 0-4.328124-3.507813-7.835937-7.835937-7.835937h-38.128907c-4.328125 0-7.835937 3.507813-7.835937 7.835937v74.210938c0 4.328125 3.507812 7.835938 7.835937 7.835938 4.332031 0 7.839844-3.507813 7.839844-7.835938v-16.605469h30.289063c4.328124 0 7.835937-3.507812 7.835937-7.835937s-3.507813-7.835938-7.835937-7.835938h-30.289063v-8.769531zm0 0" fill="#4b7fbc"/><path d="m263.140625 236.464844c-4.714844-4.710938-10.976563-7.304688-17.640625-7.304688-6.660156 0-12.925781 2.59375-17.636719 7.304688-3.453125 3.457031-5.765625 7.75-6.753906 12.421875-.046875.132812-.101563.265625-.140625.40625l-7.785156 27.269531-7.78125-27.269531c-.066406-.238281-.148438-.46875-.238282-.695313-1-4.449218-3.199218-8.675781-6.65625-12.132812-9.726562-9.726563-25.550781-9.726563-35.273437 0-4.710937 4.710937-7.304687 10.972656-7.304687 17.636718 0 6.664063 2.59375 12.925782 7.304687 17.636719 4.863281 4.863281 11.25 7.292969 17.636719 7.292969 5.386718 0 10.761718-1.75 15.234375-5.207031l9.546875 33.445312c.957031 3.363281 4.035156 5.683594 7.535156 5.683594s6.574219-2.320313 7.535156-5.683594l9.539063-33.425781c4.347656 3.367188 9.652343 5.199219 15.238281 5.199219 6.664062 0 12.925781-2.59375 17.636719-7.304688 4.710937-4.710937 7.308593-10.972656 7.308593-17.636719 0-6.660156-2.597656-12.925781-7.304687-17.636718zm-75.714844 24.191406c-3.617187 3.613281-9.496093 3.613281-13.109375 0-1.75-1.75-2.714844-4.078125-2.714844-6.554688 0-2.472656.964844-4.800781 2.714844-6.550781 1.804688-1.808593 4.179688-2.710937 6.554688-2.710937 2.371094 0 4.746094.902344 6.550781 2.710937 3.617187 3.613281 3.617187 9.492188.003906 13.105469zm64.628907 0c-1.75 1.753906-4.078126 2.714844-6.554688 2.714844-2.472656 0-4.800781-.960938-6.550781-2.714844 0 0 0 0-.003907 0-1.75-1.75-2.710937-4.078125-2.710937-6.554688 0-2.472656.960937-4.800781 2.714844-6.550781 1.75-1.753906 4.078125-2.714843 6.550781-2.714843 2.476562 0 4.804688.960937 6.554688 2.714843 1.75 1.75 2.714843 4.078125 2.714843 6.550781 0 2.476563-.964843 4.804688-2.714843 6.554688zm0 0" fill="#fc4549"/><path d="m335.621094 305.121094v82.003906c0 25.777344-20.898438 46.675781-46.675782 46.675781h-68.011718c-25.777344 0-46.675782-20.898437-46.675782-46.675781v-82.003906zm0 0" fill="#fc9e51"/><path d="m335.621094 305.121094v82.003906c0 25.777344-20.898438 46.675781-46.675782 46.675781h-34.199218c-25.777344 0-46.675782-20.898437-46.675782-46.675781v-82.003906zm0 0" fill="#fdc050"/></svg>