<svg height="464pt" viewBox="-80 0 464 464" width="464pt" xmlns="http://www.w3.org/2000/svg"><path d="m208 280v-16h-112v16h-83.761719l3.761719-56 56-32v-112h160v112l56 32 3.761719 56zm0 0" fill="#ffb655"/><path d="m176 344h-48c-17.671875 0-32-14.328125-32-32h-85.839844l-10.160156 152h304l-10.160156-152h-85.839844c0 17.671875-14.328125 32-32 32zm0 0" fill="#ffb655"/><path d="m128 344h48c17.671875 0 32-14.328125 32-32v-48h-112v48c0 17.671875 14.328125 32 32 32zm0 0" fill="#ee8700"/><path d="m112 136h80v64h-80zm0 0" fill="#ee8700"/><path d="m208 312h85.839844l-2.078125-32h-83.761719zm0 0" fill="#ffa733"/><path d="m96 280h-83.761719l-2.078125 32h85.839844zm0 0" fill="#ffa733"/><path d="m200 0h32v80h-32zm0 0" fill="#ee8700"/><path d="m72 0h32v80h-32zm0 0" fill="#ee8700"/><g fill="#cc7400"><path d="m72 72h32v8h-32zm0 0"/><path d="m200 72h32v8h-32zm0 0"/></g></svg>