<svg id="Layer_1" enable-background="new 0 0 512 512" height="512" viewBox="0 0 512 512" width="512" xmlns="http://www.w3.org/2000/svg"><g><g><path d="m339.548 138.098h-30v-54.542c0-29.527-24.021-53.548-53.548-53.548s-53.549 24.021-53.549 53.548v54.542h-30v-54.542c0-46.069 37.48-83.548 83.549-83.548s83.548 37.479 83.548 83.548z" fill="#384e75"/></g><path d="m256 .008c-.005 0-.01 0-.016 0v30h.016c29.527 0 53.548 24.021 53.548 53.548v54.542h30v-54.542c0-46.068-37.479-83.548-83.548-83.548z" fill="#2a3860"/><g><path d="m512 420.675c-33.819 0-61.334-27.514-61.334-61.333v-25.797c0-17.277-14.056-31.333-31.333-31.333h-33.706v-30h33.706c33.819 0 61.333 27.514 61.333 61.333v25.797c0 17.277 14.057 31.333 31.334 31.333z" fill="#384e75"/></g><g><path d="m512 420.675c-33.819 0-61.334-27.514-61.334-61.333v-25.797c0-17.277-14.056-31.333-31.333-31.333h-33.706v-30h33.706c33.819 0 61.333 27.514 61.333 61.333v25.797c0 17.277 14.057 31.333 31.334 31.333z" fill="#2a3860"/></g><g><path d="m0 420.675v-30c17.277 0 31.333-14.056 31.333-31.333v-25.797c0-33.819 27.514-61.333 61.333-61.333h33.707v30h-33.706c-17.277 0-31.333 14.056-31.333 31.333v25.797c-.001 33.818-27.515 61.333-61.334 61.333z" fill="#384e75"/></g><path d="m339.548 123.098h-167.097l-61.078 149.113v239.781h289.254v-239.781z" fill="#b6baf2"/><path d="m400.627 272.211-61.079-149.113h-83.564v388.894h144.643z" fill="#7c84e8"/><path d="m172.298 343.199v52.073c0 37.844 30.788 68.632 68.632 68.632h30.141c37.844 0 68.632-30.788 68.632-68.632v-52.073z" fill="#7c84e8"/><g><path d="m111.373 272.211h289.254v30h-289.254z" fill="#7c84e8"/></g><g fill="#424ede"><path d="m271.071 463.904c37.844 0 68.632-30.788 68.632-68.632v-52.073h-83.718v120.705z"/><path d="m255.984 272.211h144.643v30h-144.643z"/></g></g></svg>