<svg id="Layer_1" enable-background="new 0 0 512 512" height="512" viewBox="0 0 512 512" width="512" xmlns="http://www.w3.org/2000/svg"><g><path d="m391 7.5h-30v497h30c16.569 0 30-13.431 30-30v-437c0-16.569-13.431-30-30-30z" fill="#3d5168"/><path d="m361 7.5h-240c-16.569 0-30 13.431-30 30v437c0 16.569 13.431 30 30 30h240c16.569 0 30-13.431 30-30v-60l-90-188.5 90-188.5c0-16.569-13.431-30-30-30z" fill="#57697d"/><path d="m271 262.5 120 75v77h-30z" fill="#53a143"/><path d="m361 262.5-240 75v77h240z" fill="#60ba4d"/><path d="m361 337.5h30v-300h-30l-75 165z" fill="#b8d8ff"/><path d="m310.853 37.5c-7.956 0-15.587 3.161-21.213 8.787l-12.426 12.426c-5.453 5.426-12.948 8.787-21.214 8.787s-15.761-3.361-21.193-8.787c-.011 0-6.611-6.595-12.449-12.431-5.626-5.624-13.254-8.783-21.209-8.783h-80.149v300h240v-300h-50.147z" fill="#dbebff"/><path d="m286 444.5h-30v30h30c8.284 0 15-6.716 15-15s-6.716-15-15-15z" fill="#233952"/><path d="m271 459.5c0-8.284-6.716-15-15-15h-30c-8.284 0-15 6.716-15 15s6.716 15 15 15h30c8.284 0 15-6.716 15-15z" fill="#3d5168"/><circle cx="256" cy="202.5" fill="#fff" r="75"/><path d="m256 157.5v90c24.853 0 45-20.147 45-45s-20.147-45-45-45z" fill="#1b74d6"/><path d="m271 202.5c0-24.853-6.716-45-15-45-24.853 0-45 20.147-45 45s20.147 45 45 45c8.284 0 15-20.147 15-45z" fill="#1e8aff"/><circle cx="256" cy="37.5" r="6"/><path d="m391 0h-270c-20.678 0-37.5 16.822-37.5 37.5v437c0 20.678 16.822 37.5 37.5 37.5h270c20.678 0 37.5-16.822 37.5-37.5v-437c0-20.678-16.822-37.5-37.5-37.5zm22.5 474.5c0 12.407-10.093 22.5-22.5 22.5h-270c-12.407 0-22.5-10.093-22.5-22.5v-437c0-12.407 10.093-22.5 22.5-22.5h270c12.407 0 22.5 10.093 22.5 22.5z"/><path d="m286 437h-60c-12.407 0-22.5 10.093-22.5 22.5s10.093 22.5 22.5 22.5h60c12.407 0 22.5-10.093 22.5-22.5s-10.093-22.5-22.5-22.5zm0 30h-60c-4.136 0-7.5-3.364-7.5-7.5s3.364-7.5 7.5-7.5h60c4.136 0 7.5 3.364 7.5 7.5s-3.364 7.5-7.5 7.5z"/><path d="m391 30h-80.147c-10.017 0-19.434 3.9-26.516 10.983l-12.415 12.414c-4.277 4.258-9.932 6.603-15.922 6.603-5.993 0-11.637-2.341-15.892-6.593-.036-.036-.072-.071-.109-.106-.269-.265-2.072-2.059-12.34-12.323-7.081-7.079-16.496-10.978-26.51-10.978h-80.149c-4.142 0-7.5 3.358-7.5 7.5v270c0 4.142 3.358 7.5 7.5 7.5s7.5-3.358 7.5-7.5v-262.5h72.649c6.008 0 11.657 2.339 15.906 6.586 0 0 12.084 12.071 12.464 12.418 7.074 7.096 16.483 10.996 26.481 10.996 9.984 0 19.396-3.896 26.516-10.984l12.427-12.426c4.25-4.25 9.9-6.59 15.91-6.59h72.647v285h-262.5c-4.142 0-7.5 3.358-7.5 7.5v77c0 4.142 3.358 7.5 7.5 7.5h270c4.142 0 7.5-3.358 7.5-7.5v-377c0-4.142-3.358-7.5-7.5-7.5zm-7.5 377h-255v-62h255z"/><path d="m308.5 202.5c0-28.949-23.551-52.5-52.5-52.5s-52.5 23.551-52.5 52.5 23.551 52.5 52.5 52.5 52.5-23.551 52.5-52.5zm-90 0c0-20.678 16.822-37.5 37.5-37.5s37.5 16.822 37.5 37.5-16.822 37.5-37.5 37.5-37.5-16.822-37.5-37.5z"/><path d="m338.5 202.5c0-45.491-37.009-82.5-82.5-82.5s-82.5 37.009-82.5 82.5 37.009 82.5 82.5 82.5 82.5-37.009 82.5-82.5zm-150 0c0-37.22 30.28-67.5 67.5-67.5s67.5 30.28 67.5 67.5-30.28 67.5-67.5 67.5-67.5-30.28-67.5-67.5z"/></g></svg>