<svg id="Layer_1" enable-background="new 0 0 482 482" height="512" viewBox="0 0 482 482" width="512" xmlns="http://www.w3.org/2000/svg"><path d="m441 61.5h-52v-31c0-8.84-7.16-16-16-16h-66c-8.84 0-16 7.16-16 16v31h-100v-31c0-8.84-7.16-16-16-16h-66c-8.84 0-16 7.16-16 16v31h-52c-17.67 0-32 14.33-32 32v342c0 17.67 14.33 32 32 32h400c17.67 0 32-14.33 32-32v-342c0-17.67-14.33-32-32-32z" fill="#42434d"/><path d="m419 177.5v224c0 8.84-7.16 16-16 16h-324c-8.84 0-16-7.16-16-16v-224c0-8.84 7.16-16 16-16h324c8.84 0 16 7.16 16 16z" fill="#d6f4fc"/><path d="m419 177.5v47.145c0 10.129-9.287 17.666-19.216 15.668-132.424-26.655-244.657 20.967-307.571 115.413-8.777 13.176-29.312 6.958-29.304-8.875.015-33.544.091-86.236.091-169.35 0-8.837 7.164-16.001 16-16.001h324c8.837 0 16 7.163 16 16z" fill="#f1fafc"/><path d="m441 61.5h-126.88v-7.88c0-8.837 7.164-16 16-16h42.812c14.707 0 15.78-22.15 1.104-23.087-.807-.052 3.493-.033-67.036-.033-8.836 0-16 7.163-16 16v31h-174.88v-7.88c0-8.837 7.164-16 16-16h42.812c15.006 0 15.864-23.12.068-23.12h-66c-8.836 0-16 7.163-16 16v31h-52c-17.673 0-32 14.327-32 32 0 2.423-.02 342.343.035 343.513 1.01 21.71 33.715 20.558 33.715-1.175v-308.588c0-17.673 14.327-32 32-32h366.587c21.931 0 23.26-33.75-.337-33.75z" fill="#4d4e59"/><path d="m441 52.5h-400c-22.607 0-41 18.393-41 41v342c0 22.607 18.393 41 41 41h400c22.607 0 41-18.393 41-41v-342c0-22.607-18.393-41-41-41zm23 383c0 12.682-10.317 23-23 23h-400c-12.683 0-23-10.318-23-23v-342c0-12.682 10.317-23 23-23h400c12.683 0 23 10.318 23 23zm-159-171h-128c-29.973 0-40.195-40-22-40 4.971 0 9 4.029 9 9 0 7.168 5.832 13 13 13h128c7.168 0 13-5.832 13-13 0-4.971 4.029-9 9-9 18.198 0 7.988 40-22 40zm98-112h-324c-13.785 0-25 11.215-25 25v224c0 13.785 11.215 25 25 25h324c13.785 0 25-11.215 25-25v-224c0-13.785-11.215-25-25-25zm7 249c0 3.86-3.141 7-7 7h-324c-3.859 0-7-3.14-7-7v-224c0-3.86 3.141-7 7-7h324c3.859 0 7 3.14 7 7zm-187-286c0-9.925 8.075-18 18-18s18 8.075 18 18-8.075 18-18 18-18-8.075-18-18zm-90 0c0-9.925 8.075-18 18-18s18 8.075 18 18-8.075 18-18 18-18-8.075-18-18zm180 0c0-9.925 8.075-18 18-18s18 8.075 18 18-8.075 18-18 18-18-8.075-18-18zm-204-110h66c25.01 0 32.927 34 16 34-4.971 0-9-4.029-9-9 0-3.86-3.141-7-7-7h-66c-3.859 0-7 3.14-7 7 0 4.971-4.029 9-9 9-16.822 0-9.062-34 16-34zm198 0h66c25.01 0 32.927 34 16 34-4.971 0-9-4.029-9-9 0-3.86-3.141-7-7-7h-66c-3.859 0-7 3.14-7 7 0 4.971-4.029 9-9 9-16.822 0-9.062-34 16-34z"/></svg>