<svg height="512" viewBox="0 0 512 512" width="512" xmlns="http://www.w3.org/2000/svg"><g id="filled_outline" data-name="filled outline"><path d="m312 112a8 8 0 0 1 -8-8v-54a18.021 18.021 0 0 0 -18-18h-60a18.021 18.021 0 0 0 -18 18v54a8 8 0 0 1 -16 0v-54a34.038 34.038 0 0 1 34-34h60a34.038 34.038 0 0 1 34 34v54a8 8 0 0 1 -8 8z" fill="#683b0d"/><path d="m60 376h-28a8 8 0 0 1 0-16h28a20.023 20.023 0 0 0 20-20v-4a16.019 16.019 0 0 0 -16-16 40 40 0 0 1 0-80h72a8 8 0 0 1 0 16h-72a24 24 0 0 0 0 48 32.036 32.036 0 0 1 32 32v4a36.04 36.04 0 0 1 -36 36z" fill="#8f6934"/><path d="m480 376h-28a36.04 36.04 0 0 1 -36-36v-4a32.036 32.036 0 0 1 32-32 24 24 0 0 0 0-48h-72a8 8 0 0 1 0-16h72a40 40 0 0 1 0 80 16.019 16.019 0 0 0 -16 16v4a20.023 20.023 0 0 0 20 20h28a8 8 0 0 1 0 16z" fill="#8f6934"/><path d="m336 140.775v-26.775a10 10 0 0 0 -10-10h-140a10 10 0 0 0 -10 10v26.775a106.582 106.582 0 0 1 -40 83.225v256a8 8 0 0 0 8 8h224a8 8 0 0 0 8-8v-256a106.582 106.582 0 0 1 -40-83.225z" fill="#fbb540"/><path d="m192 296h128a0 0 0 0 1 0 0v84a12 12 0 0 1 -12 12h-104a12 12 0 0 1 -12-12v-84a0 0 0 0 1 0 0z" fill="#683b0d"/><path d="m224 275a8 8 0 0 1 -8-8v-80a8 8 0 0 1 16 0v80a8 8 0 0 1 -8 8z" fill="#eaeae8"/><path d="m280 236a50.819 50.819 0 0 0 5.367 22.733 24.957 24.957 0 0 1 2.633 11.156v26.111h24v-26.111a24.957 24.957 0 0 1 2.633-11.156 50.819 50.819 0 0 0 5.367-22.733 20 20 0 0 0 -20-20 20 20 0 0 0 -20 20z" fill="#b26643"/><path d="m224 280a7.974 7.974 0 0 1 -5.657-2.343l-22.627-22.627a39.739 39.739 0 0 1 -11.716-28.285v-10.745a40 40 0 0 1 80 0v10.745a39.739 39.739 0 0 1 -11.716 28.285l-22.627 22.627a7.974 7.974 0 0 1 -5.657 2.343zm0-87.97a23.976 23.976 0 0 0 -14.4 4.77 24.113 24.113 0 0 0 -9.6 19.2v10.745a23.844 23.844 0 0 0 7.03 16.971l16.97 16.971 16.97-16.971a23.844 23.844 0 0 0 7.03-16.971v-10.745a23.942 23.942 0 0 0 -24-23.97z" fill="#eaeae8"/><path d="m208 280v16h32v-16a16 16 0 0 0 -16-16 16 16 0 0 0 -16 16z" fill="#5ebef7"/><path d="m60 360h-28a8 8 0 0 0 0 16h28a36.04 36.04 0 0 0 36-36v-4a32.036 32.036 0 0 0 -32-32 24 24 0 0 1 0-48h64v224a16.019 16.019 0 0 0 16 16h224a16.019 16.019 0 0 0 16-16v-224h64a24 24 0 0 1 0 48 32.036 32.036 0 0 0 -32 32v4a36.04 36.04 0 0 0 36 36h28a8 8 0 0 0 0-16h-28a20.023 20.023 0 0 1 -20-20v-4a16.019 16.019 0 0 1 16-16 40 40 0 0 0 0-80h-64v-16a8 8 0 0 0 -3-6.247 98.1 98.1 0 0 1 -37-76.978v-26.775a18.021 18.021 0 0 0 -18-18h-6v-46a34.038 34.038 0 0 0 -34-34h-60a34.038 34.038 0 0 0 -34 34v46h-6a18.021 18.021 0 0 0 -18 18v26.775a98.1 98.1 0 0 1 -37 76.978 8 8 0 0 0 -3 6.247v16h-64a40 40 0 0 0 0 80 16.019 16.019 0 0 1 16 16v4a20.023 20.023 0 0 1 -20 20zm148-310a18.021 18.021 0 0 1 18-18h60a18.021 18.021 0 0 1 18 18v46h-96zm-64 177.762a113.979 113.979 0 0 0 40-86.987v-26.775a2 2 0 0 1 2-2h140a2 2 0 0 1 2 2v26.775a113.979 113.979 0 0 0 40 86.987v252.238h-224z"/><path d="m320 288v-18.111a17.009 17.009 0 0 1 1.789-7.577 59.126 59.126 0 0 0 6.211-26.312 28 28 0 0 0 -56 0 59.114 59.114 0 0 0 6.212 26.312 17.022 17.022 0 0 1 1.788 7.577v18.111h-32v-8a23.89 23.89 0 0 0 -5.461-15.224l9.745-9.746a39.739 39.739 0 0 0 11.716-28.285v-10.745a40 40 0 0 0 -80 0v10.745a39.739 39.739 0 0 0 11.716 28.285l9.745 9.746a23.89 23.89 0 0 0 -5.461 15.224v8h-8a8 8 0 0 0 -8 8v84a20.023 20.023 0 0 0 20 20h104a20.023 20.023 0 0 0 20-20v-84a8 8 0 0 0 -8-8zm-27.479-32.845a43.05 43.05 0 0 1 -4.521-19.155 12 12 0 0 1 24 0 43.043 43.043 0 0 1 -4.521 19.154 33.1 33.1 0 0 0 -3.479 14.735v18.111h-8v-18.111a33.1 33.1 0 0 0 -3.479-14.734zm-44.521-39.155v10.745a23.844 23.844 0 0 1 -7.03 16.971l-8.97 8.97v-59.286a23.723 23.723 0 0 1 6.4 3.4 24.113 24.113 0 0 1 9.6 19.2zm-48 0a24.116 24.116 0 0 1 9.6-19.2 23.692 23.692 0 0 1 6.4-3.4v59.283l-8.97-8.97a23.844 23.844 0 0 1 -7.03-16.968zm16 64a8 8 0 0 1 16 0v8h-16zm96 100a4 4 0 0 1 -4 4h-104a4 4 0 0 1 -4-4v-76h112z"/></g></svg>